<svg width="512" height="512" viewBox="0 0 512 512" fill="none" xmlns="http://www.w3.org/2000/svg">
  <rect width="512" height="512" rx="128" fill="#1c2030"/>
  <!-- Heart shape -->
  <path d="M256 384C250.5 384 245.1 382.2 240.1 378.6C179.8 337.1 132.8 290.3 101.2 247.1C84.4 224.1 74 202.3 69.9 181.2C65.9 160.4 68.8 140.7 78.7 121.5C87.8 104.2 101.4 91 118.1 82.7C134.8 74.3 153.7 71.2 172.3 73.7C190.9 76.2 207 84.1 219.9 96.2C232.9 108.3 241.2 124.4 244 141.1L256 141.1L268 141.1C270.8 124.4 279.1 108.3 292.1 96.2C305 84.1 321.1 76.2 339.7 73.7C358.3 71.2 377.2 74.3 393.9 82.7C410.6 91 424.2 104.2 433.3 121.5C443.2 140.7 446.1 160.4 442.1 181.2C438 202.3 427.6 224.1 410.8 247.1C379.2 290.3 332.2 337.1 271.9 378.6C266.9 382.2 261.5 384 256 384Z" fill="#7C3AED"/>
  
  <!-- Arrow through heart -->
  <path d="M256 175L320 100" stroke="white" stroke-width="16" stroke-linecap="round"/>
  <path d="M320 100L290 115" stroke="white" stroke-width="16" stroke-linecap="round"/>
  <path d="M320 100L310 135" stroke="white" stroke-width="16" stroke-linecap="round"/>
</svg> 